# xmcd
#
# Track frame offsets:
#  150
#  14202
#  33847
#  38625
#  42589
#  67579
#  83932
#  102834
#  117630
#  181487
#  189038
#  203291
#  208246
#  219620
#  222357
#  237696
#
# Disc length: 3330 seconds
#
# Revision: 0
# Processed by: cddbd v1.5.1PL2 Copyright (c) Steve Scherf et al.
# Submitted via: Collectorz.com_Music_Collector 6.11
#
DISCID=e70d0010
DTITLE=Todd Snider - The Beachland Ballroom, Cleveland 29 Dec 2005 [CD1)
DYEAR=1900
DGENRE=Alt Country
TTITLE0=Can't Complain
TTITLE1=Old Times
TTITLE2=Todd's Self Intro
TTITLE3=Ballad Of The Kingsmen Intro
TTITLE4=Ballad Of The Kingsmen
TTITLE5=Tension
TTITLE6=Horseshoe Lake
TTITLE7=D.B. Cooper
TTITLE8=Banter, Kk Rider Story
TTITLE9=Don't It Make You Wanna Dance
TTITLE10=Betty Was Black (And Willie Was White)
TTITLE11=All My Life Intro
TTITLE12=All My Life
TTITLE13=Statistician's Blues Intro
TTITLE14=Statistician's Blues
TTITLE15=Vinyl Records
EXTD=
EXTT0=
EXTT1=
EXTT2=
EXTT3=
EXTT4=
EXTT5=
EXTT6=
EXTT7=
EXTT8=
EXTT9=
EXTT10=
EXTT11=
EXTT12=
EXTT13=
EXTT14=
EXTT15=
PLAYORDER=
